<svg width="48" height="30" viewBox="0 0 48 30" fill="none" xmlns="http://www.w3.org/2000/svg">
<path d="M24 30C20.9403 30 17.7806 29.24 14.601 27.75C12.1112 26.58 9.6015 24.96 7.14176 22.93C2.99219 19.5 0.432455 16.1 0.322466 15.96C-0.107489 15.39 -0.107489 14.61 0.322466 14.04C0.432455 13.9 2.99219 10.5 7.14176 7.07C9.6015 5.04 12.1112 3.42 14.601 2.25C17.7806 0.76 20.9403 0 24 0C27.0597 0 30.2194 0.76 33.399 2.25C35.8888 3.42 38.3985 5.04 40.8582 7.07C45.0078 10.5 47.5775 13.9 47.6775 14.04C48.1075 14.61 48.1075 15.39 47.6775 15.96C47.5675 16.1 45.0078 19.5 40.8582 22.93C38.3985 24.96 35.8888 26.58 33.399 27.75C30.2194 29.24 27.0597 30 24 30ZM3.66212 15C6.17186 17.97 14.461 26.8 24 26.8C33.559 26.8 41.8281 17.97 44.3379 15C41.8281 12.03 33.539 3.2 24 3.2C14.441 3.2 6.17186 12.03 3.66212 15Z" fill="#8F00CD"/>
<path d="M24 22.2C20.0304 22.2 16.8008 18.97 16.8008 15C16.8008 11.03 20.0304 7.8 24 7.8C27.9696 7.8 31.1993 11.03 31.1993 15C31.1993 18.97 27.9696 22.2 24 22.2ZM24 11C21.7902 11 20.0004 12.79 20.0004 15C20.0004 17.21 21.7902 19 24 19C26.2098 19 27.9996 17.21 27.9996 15C27.9996 12.79 26.2098 11 24 11Z" fill="#8F00CD"/>
</svg>
